<svg id="Layer_1" class="icon icon-twitter" height="17" data-name="Layer 1" xmlns="http://www.w3.org/2000/svg" viewBox="0 0 500.08 511.77"><path fill="currentColor" d="M10.22,512.77c11.62-13.7,23.17-27.46,34.88-41.08q78.33-91.1,156.74-182.15c1.08-1.25,2.09-2.57,3.31-4.08L9.92,1.42c1.92-.14,3.15-.31,4.38-.31q70.2,0,140.42-.1c3.33,0,5,1.24,6.76,3.8Q223,94.6,284.75,184.27c1,1.48,2.09,2.92,3.46,4.83l25.3-29.35Q379.81,82.68,446,5.54A11.69,11.69,0,0,1,456.22,1c12.25.27,24.52.09,37.95.09L307.77,217.76l29,42.16Q422,384,507.25,508.1c1,1.48,1.84,3.11,2.75,4.67H361.07c-.67-1.14-1.28-2.32-2-3.41q-65.88-95.82-131.8-191.62c-.72-1.05-1.61-2-2.61-3.2-1.78,2-3.35,3.71-4.86,5.46q-52.6,61.13-105.19,122.25Q84.34,477.47,54.2,512.77Z" transform="translate(-9.92 -1)"></path></svg>